<mxfile host="app.diagrams.net" modified="2023-06-16T11:51:33.809Z" agent="Mozilla/5.0 (Windows NT 10.0; Win64; x64) AppleWebKit/537.36 (KHTML, like Gecko) Chrome/110.0.0.0 Safari/537.36" version="21.3.0" etag="KDzN20zmsQ9n3Ui-vYej" type="github">
  <diagram name="Page-1" id="WFhf91U2_fSa9oH4KJbL">
    <mxGraphModel>
      <root>
        <mxCell id="0" />
        <mxCell id="1" parent="0" />
      </root>
    </mxGraphModel>
  </diagram>
</mxfile>
